<svg xmlns="http://www.w3.org/2000/svg" width="1280" height="720" viewBox="0 0 1280 720"><rect width="1280" height="720" fill="#1a2240"/><circle cx="0" cy="20" r="1" fill="#fff8d6"/><circle cx="97" cy="73" r="2" fill="#fff8d6"/><circle cx="194" cy="126" r="3" fill="#fff8d6"/><circle cx="291" cy="179" r="1" fill="#fff8d6"/><circle cx="388" cy="32" r="2" fill="#fff8d6"/><circle cx="485" cy="85" r="3" fill="#fff8d6"/><circle cx="582" cy="138" r="1" fill="#fff8d6"/><circle cx="679" cy="191" r="2" fill="#fff8d6"/><circle cx="776" cy="44" r="3" fill="#fff8d6"/><circle cx="873" cy="97" r="1" fill="#fff8d6"/><circle cx="970" cy="150" r="2" fill="#fff8d6"/><circle cx="1067" cy="203" r="3" fill="#fff8d6"/><circle cx="1164" cy="56" r="1" fill="#fff8d6"/><circle cx="1261" cy="109" r="2" fill="#fff8d6"/><circle cx="78" cy="162" r="3" fill="#fff8d6"/><circle cx="175" cy="215" r="1" fill="#fff8d6"/><circle cx="272" cy="68" r="2" fill="#fff8d6"/><circle cx="369" cy="121" r="3" fill="#fff8d6"/><circle cx="466" cy="174" r="1" fill="#fff8d6"/><circle cx="563" cy="27" r="2" fill="#fff8d6"/><circle cx="660" cy="80" r="3" fill="#fff8d6"/><circle cx="757" cy="133" r="1" fill="#fff8d6"/><circle cx="854" cy="186" r="2" fill="#fff8d6"/><circle cx="951" cy="39" r="3" fill="#fff8d6"/><circle cx="1048" cy="92" r="1" fill="#fff8d6"/><circle cx="1145" cy="145" r="2" fill="#fff8d6"/><circle cx="1242" cy="198" r="3" fill="#fff8d6"/><circle cx="59" cy="51" r="1" fill="#fff8d6"/><circle cx="1180" cy="90" r="40" fill="#fff4c2"/>
<rect y="560" width="1280" height="160" fill="#2a3150"/></svg>
