<svg xmlns="http://www.w3.org/2000/svg" width="1280" height="720" viewBox="0 0 1280 720">
<rect width="1280" height="500" fill="#7a2f3a"/>
<g fill="#6b2833"><rect x="0" y="0" width="40" height="500"/><rect x="80" y="0" width="40" height="500"/><rect x="160" y="0" width="40" height="500"/><rect x="240" y="0" width="40" height="500"/><rect x="320" y="0" width="40" height="500"/><rect x="400" y="0" width="40" height="500"/><rect x="480" y="0" width="40" height="500"/><rect x="560" y="0" width="40" height="500"/><rect x="640" y="0" width="40" height="500"/><rect x="720" y="0" width="40" height="500"/><rect x="800" y="0" width="40" height="500"/><rect x="880" y="0" width="40" height="500"/><rect x="960" y="0" width="40" height="500"/><rect x="1040" y="0" width="40" height="500"/><rect x="1120" y="0" width="40" height="500"/><rect x="1200" y="0" width="40" height="500"/></g>
<rect y="490" width="1280" height="230" fill="#8a5a36"/>
<g stroke="#6e4428" stroke-width="4"><line x1="0" y1="490" x2="-60" y2="720"/><line x1="140" y1="490" x2="80" y2="720"/><line x1="280" y1="490" x2="220" y2="720"/><line x1="420" y1="490" x2="360" y2="720"/><line x1="560" y1="490" x2="500" y2="720"/><line x1="700" y1="490" x2="640" y2="720"/><line x1="840" y1="490" x2="780" y2="720"/><line x1="980" y1="490" x2="920" y2="720"/><line x1="1120" y1="490" x2="1060" y2="720"/><line x1="1260" y1="490" x2="1200" y2="720"/></g>
<g stroke="#2a1b12" stroke-width="6" stroke-linejoin="round" stroke-linecap="round"><rect x="880" y="130" width="380" height="290" rx="8" fill="#1d2a4a"/><line x1="1070" y1="130" x2="1070" y2="420"/><line x1="880" y1="275" x2="1260" y2="275"/></g>
<g fill="#ffe36b"><circle cx="930" cy="170" r="3"/><circle cx="1010" cy="200" r="2"/><circle cx="1200" cy="160" r="3"/></g>
<rect x="880" y="380" width="380" height="40" fill="#3a3f45"/>
<path d="M0 60 Q640 120 1280 60" fill="none" stroke="#2a1b12" stroke-width="3"/>
<g stroke="#2a1b12" stroke-width="3"><circle cx="20" cy="73.9671593822102" r="7" fill="#ffe36b"/><circle cx="100" cy="86.13145961853921" r="7" fill="#ffe36b"/><circle cx="180" cy="86.36735368286227" r="7" fill="#ffe36b"/><circle cx="260" cy="74.50040973334053" r="7" fill="#ffe36b"/><circle cx="340" cy="59.30563826484837" r="7" fill="#ffe36b"/><circle cx="420" cy="52.01881149223729" r="7" fill="#ffe36b"/><circle cx="500" cy="58.0281727303812" r="7" fill="#ffe36b"/><circle cx="580" cy="72.89010042376333" r="7" fill="#ffe36b"/><circle cx="660" cy="85.61494365313851" r="7" fill="#ffe36b"/><circle cx="740" cy="86.79331838851826" r="7" fill="#ffe36b"/><circle cx="820" cy="75.55387555183866" r="7" fill="#ffe36b"/><circle cx="900" cy="60.207620003991345" r="7" fill="#ffe36b"/><circle cx="980" cy="52.10233884687898" r="7" fill="#ffe36b"/><circle cx="1060" cy="57.231481406638736" r="7" fill="#ffe36b"/><circle cx="1140" cy="71.80230373983831" r="7" fill="#ffe36b"/><circle cx="1220" cy="85.04041275617169" r="7" fill="#ffe36b"/></g></svg>
